<mxfile host="www.draw.io" modified="2019-12-14T16:01:21.199Z" agent="Mozilla/5.0 (Windows NT 6.1; WOW64) AppleWebKit/537.36 (KHTML, like Gecko) Chrome/79.0.3945.79 Safari/537.36" etag="pybt2EECYvk679vdVNZ9" version="12.4.2" type="github" pages="1">
  <diagram name="Page-1" id="e7e014a7-5840-1c2e-5031-d8a46d1fe8dd">
    <mxGraphModel dx="1108" dy="482" grid="1" gridSize="10" guides="1" tooltips="1" connect="1" arrows="1" fold="1" page="1" pageScale="1" pageWidth="1169" pageHeight="826" background="#ffffff" math="0" shadow="0">
      <root>
        <mxCell id="0"/>
        <mxCell id="1" parent="0"/>
        <mxCell id="Aj-Ty21GfqyuRh5yRPH_-41" value="" style="ellipse;whiteSpace=wrap;html=1;aspect=fixed;fillColor=#FFFFFF;" vertex="1" parent="1">
          <mxGeometry x="423.75" y="446.38" width="52.5" height="52.5" as="geometry"/>
        </mxCell>
        <mxCell id="Aj-Ty21GfqyuRh5yRPH_-42" style="edgeStyle=orthogonalEdgeStyle;rounded=0;html=1;labelBackgroundColor=none;startArrow=none;startFill=0;startSize=5;endArrow=classicThin;endFill=1;endSize=5;jettySize=auto;orthogonalLoop=1;strokeWidth=1;fontFamily=Verdana;fontSize=12" edge="1" parent="1" source="Aj-Ty21GfqyuRh5yRPH_-43">
          <mxGeometry relative="1" as="geometry">
            <mxPoint x="450.1176470588234" y="99.99999999999989" as="targetPoint"/>
          </mxGeometry>
        </mxCell>
        <mxCell id="Aj-Ty21GfqyuRh5yRPH_-43" value="" style="ellipse;whiteSpace=wrap;html=1;rounded=0;shadow=0;comic=0;labelBackgroundColor=none;strokeWidth=1;fillColor=#000000;fontFamily=Verdana;fontSize=12;align=center;" vertex="1" parent="1">
          <mxGeometry x="430" y="30" width="40" height="40" as="geometry"/>
        </mxCell>
        <mxCell id="Aj-Ty21GfqyuRh5yRPH_-44" style="edgeStyle=orthogonalEdgeStyle;rounded=0;orthogonalLoop=1;jettySize=auto;html=1;" edge="1" parent="1" source="Aj-Ty21GfqyuRh5yRPH_-47">
          <mxGeometry relative="1" as="geometry">
            <mxPoint x="340" y="139.9999999999999" as="targetPoint"/>
          </mxGeometry>
        </mxCell>
        <mxCell id="Aj-Ty21GfqyuRh5yRPH_-45" style="edgeStyle=orthogonalEdgeStyle;rounded=0;orthogonalLoop=1;jettySize=auto;html=1;" edge="1" parent="1" source="Aj-Ty21GfqyuRh5yRPH_-47">
          <mxGeometry relative="1" as="geometry">
            <mxPoint x="560" y="139.9999999999999" as="targetPoint"/>
          </mxGeometry>
        </mxCell>
        <mxCell id="Aj-Ty21GfqyuRh5yRPH_-47" value="" style="rhombus;whiteSpace=wrap;html=1;fillColor=#FFFFFF;" vertex="1" parent="1">
          <mxGeometry x="410" y="100" width="80" height="80" as="geometry"/>
        </mxCell>
        <mxCell id="Aj-Ty21GfqyuRh5yRPH_-48" value="대여물품관리" style="text;html=1;align=center;verticalAlign=middle;resizable=0;points=[];;autosize=1;" vertex="1" parent="1">
          <mxGeometry x="335" y="114" width="90" height="20" as="geometry"/>
        </mxCell>
        <mxCell id="Aj-Ty21GfqyuRh5yRPH_-49" value="대여장부관리" style="text;html=1;align=center;verticalAlign=middle;resizable=0;points=[];;autosize=1;" vertex="1" parent="1">
          <mxGeometry x="475" y="114" width="90" height="20" as="geometry"/>
        </mxCell>
        <mxCell id="Aj-Ty21GfqyuRh5yRPH_-121" style="edgeStyle=orthogonalEdgeStyle;rounded=0;orthogonalLoop=1;jettySize=auto;html=1;entryX=1;entryY=0.5;entryDx=0;entryDy=0;" edge="1" parent="1" source="Aj-Ty21GfqyuRh5yRPH_-52" target="Aj-Ty21GfqyuRh5yRPH_-87">
          <mxGeometry relative="1" as="geometry">
            <Array as="points">
              <mxPoint x="765" y="405"/>
            </Array>
          </mxGeometry>
        </mxCell>
        <mxCell id="Aj-Ty21GfqyuRh5yRPH_-52" value="대여장부에 있는 기록을 삭제한다" style="rounded=1;whiteSpace=wrap;html=1;shadow=0;comic=0;labelBackgroundColor=none;strokeWidth=1;fontFamily=Verdana;fontSize=12;align=center;arcSize=50;" vertex="1" parent="1">
          <mxGeometry x="700" y="117.5" width="130" height="45" as="geometry"/>
        </mxCell>
        <mxCell id="Aj-Ty21GfqyuRh5yRPH_-112" style="edgeStyle=orthogonalEdgeStyle;rounded=0;orthogonalLoop=1;jettySize=auto;html=1;" edge="1" parent="1" source="Aj-Ty21GfqyuRh5yRPH_-54">
          <mxGeometry relative="1" as="geometry">
            <mxPoint x="599.75" y="310" as="targetPoint"/>
          </mxGeometry>
        </mxCell>
        <mxCell id="Aj-Ty21GfqyuRh5yRPH_-54" value="고객의 정보를 입력한다" style="rounded=1;whiteSpace=wrap;html=1;shadow=0;comic=0;labelBackgroundColor=none;strokeWidth=1;fontFamily=Verdana;fontSize=12;align=center;arcSize=50;" vertex="1" parent="1">
          <mxGeometry x="534.75" y="230" width="130" height="45" as="geometry"/>
        </mxCell>
        <mxCell id="Aj-Ty21GfqyuRh5yRPH_-85" value="" style="ellipse;whiteSpace=wrap;html=1;rounded=0;shadow=0;comic=0;labelBackgroundColor=none;strokeWidth=1;fillColor=#000000;fontFamily=Verdana;fontSize=12;align=center;" vertex="1" parent="1">
          <mxGeometry x="429.75" y="452.88" width="40" height="40" as="geometry"/>
        </mxCell>
        <mxCell id="Aj-Ty21GfqyuRh5yRPH_-86" style="edgeStyle=orthogonalEdgeStyle;rounded=0;orthogonalLoop=1;jettySize=auto;html=1;entryX=0.5;entryY=0;entryDx=0;entryDy=0;" edge="1" parent="1" source="Aj-Ty21GfqyuRh5yRPH_-87" target="Aj-Ty21GfqyuRh5yRPH_-41">
          <mxGeometry relative="1" as="geometry"/>
        </mxCell>
        <mxCell id="Aj-Ty21GfqyuRh5yRPH_-87" value="" style="whiteSpace=wrap;html=1;rounded=0;shadow=0;comic=0;labelBackgroundColor=none;strokeWidth=1;fillColor=#000000;fontFamily=Verdana;fontSize=12;align=center;rotation=0;" vertex="1" parent="1">
          <mxGeometry x="230" y="400" width="440" height="10" as="geometry"/>
        </mxCell>
        <mxCell id="Aj-Ty21GfqyuRh5yRPH_-116" style="edgeStyle=orthogonalEdgeStyle;rounded=0;orthogonalLoop=1;jettySize=auto;html=1;entryX=1;entryY=0.5;entryDx=0;entryDy=0;" edge="1" parent="1" source="Aj-Ty21GfqyuRh5yRPH_-92" target="Aj-Ty21GfqyuRh5yRPH_-103">
          <mxGeometry relative="1" as="geometry"/>
        </mxCell>
        <mxCell id="Aj-Ty21GfqyuRh5yRPH_-117" style="edgeStyle=orthogonalEdgeStyle;rounded=0;orthogonalLoop=1;jettySize=auto;html=1;" edge="1" parent="1" source="Aj-Ty21GfqyuRh5yRPH_-92">
          <mxGeometry relative="1" as="geometry">
            <mxPoint x="300" y="230" as="targetPoint"/>
          </mxGeometry>
        </mxCell>
        <mxCell id="Aj-Ty21GfqyuRh5yRPH_-92" value="상품상태" style="rhombus;whiteSpace=wrap;html=1;fillColor=#FFFFFF;" vertex="1" parent="1">
          <mxGeometry x="260" y="100" width="80" height="80" as="geometry"/>
        </mxCell>
        <mxCell id="Aj-Ty21GfqyuRh5yRPH_-93" value="인식기" style="text;html=1;align=center;verticalAlign=middle;resizable=0;points=[];;autosize=1;" vertex="1" parent="1">
          <mxGeometry x="50" y="114" width="50" height="20" as="geometry"/>
        </mxCell>
        <mxCell id="Aj-Ty21GfqyuRh5yRPH_-106" style="edgeStyle=orthogonalEdgeStyle;rounded=0;orthogonalLoop=1;jettySize=auto;html=1;" edge="1" parent="1" source="Aj-Ty21GfqyuRh5yRPH_-105">
          <mxGeometry relative="1" as="geometry">
            <mxPoint x="600" y="230" as="targetPoint"/>
          </mxGeometry>
        </mxCell>
        <mxCell id="Aj-Ty21GfqyuRh5yRPH_-110" style="edgeStyle=orthogonalEdgeStyle;rounded=0;orthogonalLoop=1;jettySize=auto;html=1;" edge="1" parent="1" source="Aj-Ty21GfqyuRh5yRPH_-105">
          <mxGeometry relative="1" as="geometry">
            <mxPoint x="700" y="140" as="targetPoint"/>
          </mxGeometry>
        </mxCell>
        <mxCell id="Aj-Ty21GfqyuRh5yRPH_-105" value="" style="rhombus;whiteSpace=wrap;html=1;fillColor=#FFFFFF;" vertex="1" parent="1">
          <mxGeometry x="560" y="100" width="80" height="80" as="geometry"/>
        </mxCell>
        <mxCell id="Aj-Ty21GfqyuRh5yRPH_-107" value="대여" style="text;html=1;align=center;verticalAlign=middle;resizable=0;points=[];;autosize=1;" vertex="1" parent="1">
          <mxGeometry x="560" y="190" width="40" height="20" as="geometry"/>
        </mxCell>
        <mxCell id="Aj-Ty21GfqyuRh5yRPH_-111" value="반납" style="text;html=1;align=center;verticalAlign=middle;resizable=0;points=[];;autosize=1;" vertex="1" parent="1">
          <mxGeometry x="640" y="114" width="40" height="20" as="geometry"/>
        </mxCell>
        <mxCell id="Aj-Ty21GfqyuRh5yRPH_-120" style="edgeStyle=orthogonalEdgeStyle;rounded=0;orthogonalLoop=1;jettySize=auto;html=1;" edge="1" parent="1" source="Aj-Ty21GfqyuRh5yRPH_-113">
          <mxGeometry relative="1" as="geometry">
            <mxPoint x="600" y="390" as="targetPoint"/>
          </mxGeometry>
        </mxCell>
        <mxCell id="Aj-Ty21GfqyuRh5yRPH_-113" value="대여장부에 등록한다" style="rounded=1;whiteSpace=wrap;html=1;shadow=0;comic=0;labelBackgroundColor=none;strokeWidth=1;fontFamily=Verdana;fontSize=12;align=center;arcSize=50;" vertex="1" parent="1">
          <mxGeometry x="535" y="310" width="130" height="45" as="geometry"/>
        </mxCell>
        <mxCell id="Aj-Ty21GfqyuRh5yRPH_-114" value="파손 및 불량" style="text;html=1;align=center;verticalAlign=middle;resizable=0;points=[];;autosize=1;" vertex="1" parent="1">
          <mxGeometry x="180" y="117.5" width="80" height="20" as="geometry"/>
        </mxCell>
        <mxCell id="Aj-Ty21GfqyuRh5yRPH_-123" style="edgeStyle=orthogonalEdgeStyle;rounded=0;orthogonalLoop=1;jettySize=auto;html=1;entryX=0;entryY=0.5;entryDx=0;entryDy=0;" edge="1" parent="1" source="Aj-Ty21GfqyuRh5yRPH_-103" target="Aj-Ty21GfqyuRh5yRPH_-87">
          <mxGeometry relative="1" as="geometry">
            <Array as="points">
              <mxPoint x="120" y="405"/>
            </Array>
          </mxGeometry>
        </mxCell>
        <mxCell id="Aj-Ty21GfqyuRh5yRPH_-103" value="상품을 폐기한다" style="rounded=1;whiteSpace=wrap;html=1;shadow=0;comic=0;labelBackgroundColor=none;strokeWidth=1;fontFamily=Verdana;fontSize=12;align=center;arcSize=50;" vertex="1" parent="1">
          <mxGeometry x="50" y="117.5" width="130" height="45" as="geometry"/>
        </mxCell>
        <mxCell id="Aj-Ty21GfqyuRh5yRPH_-118" value="새상품" style="text;html=1;align=center;verticalAlign=middle;resizable=0;points=[];;autosize=1;" vertex="1" parent="1">
          <mxGeometry x="304" y="190" width="50" height="20" as="geometry"/>
        </mxCell>
        <mxCell id="Aj-Ty21GfqyuRh5yRPH_-122" style="edgeStyle=orthogonalEdgeStyle;rounded=0;orthogonalLoop=1;jettySize=auto;html=1;" edge="1" parent="1" source="Aj-Ty21GfqyuRh5yRPH_-119">
          <mxGeometry relative="1" as="geometry">
            <mxPoint x="300" y="390" as="targetPoint"/>
          </mxGeometry>
        </mxCell>
        <mxCell id="Aj-Ty21GfqyuRh5yRPH_-119" value="물품을 추가한다" style="rounded=1;whiteSpace=wrap;html=1;shadow=0;comic=0;labelBackgroundColor=none;strokeWidth=1;fontFamily=Verdana;fontSize=12;align=center;arcSize=50;" vertex="1" parent="1">
          <mxGeometry x="235" y="230" width="130" height="45" as="geometry"/>
        </mxCell>
      </root>
    </mxGraphModel>
  </diagram>
</mxfile>
